<svg xmlns="http://www.w3.org/2000/svg" xmlns:xlink="http://www.w3.org/1999/xlink" width="100" height="100" version="1.1" viewBox="0 0 100 100"><g id="shared" fill="none" fill-rule="evenodd" stroke="none" stroke-width="1"><g fill="#27AAE1"><rect id="12" width="8" height="24" x="46" y="4"/><rect id="11" width="8" height="24" x="28.464" y="8.124" opacity=".91" transform="translate(32.464102, 20.124356) rotate(330.000000) translate(-32.464102, -20.124356)"/><rect id="10" width="8" height="24" x="16.124" y="20.464" opacity=".83" transform="translate(20.124356, 32.464102) rotate(300.000000) translate(-20.124356, -32.464102)"/><rect id="9" width="8" height="24" x="12" y="38" opacity=".75" transform="translate(16.000000, 50.000000) rotate(270.000000) translate(-16.000000, -50.000000)"/><rect id="8" width="8" height="24" x="16.124" y="55.464" opacity=".66" transform="translate(20.124356, 67.464102) rotate(240.000000) translate(-20.124356, -67.464102)"/><rect id="7" width="8" height="24" x="28.464" y="68.124" opacity=".58" transform="translate(32.464102, 80.124356) rotate(210.000000) translate(-32.464102, -80.124356)"/><rect id="6" width="8" height="24" x="46" y="72" opacity=".5" transform="translate(50.000000, 84.000000) rotate(180.000000) translate(-50.000000, -84.000000)"/><rect id="5" width="8" height="24" x="63.464" y="68.124" opacity=".41" transform="translate(67.464102, 80.124356) rotate(150.000000) translate(-67.464102, -80.124356)"/><rect id="4" width="8" height="24" x="76.124" y="55.464" opacity=".33" transform="translate(80.124356, 67.464102) rotate(120.000000) translate(-80.124356, -67.464102)"/><rect id="3" width="8" height="24" x="80" y="38" opacity=".25" transform="translate(84.000000, 50.000000) rotate(90.000000) translate(-84.000000, -50.000000)"/><rect id="2" width="8" height="24" x="76.124" y="20.464" opacity=".16" transform="translate(80.124356, 32.464102) rotate(60.000000) translate(-80.124356, -32.464102)"/><rect id="1" width="8" height="24" x="63.464" y="8.124" opacity=".08" transform="translate(67.464102, 20.124356) rotate(30.000000) translate(-67.464102, -20.124356)"/></g></g></svg>